<svg width="640" height="480" xmlns="http://www.w3.org/2000/svg">
 <!-- Created with SVG-edit - http://svg-edit.googlecode.com/ -->
 <g>
  <title>Layer 1</title>
  <path transform="rotate(158.974365234375 178.2334136962891,286.5831298828125) " d="m87.33756,196.97639c-0.54516,0 -1.09032,0 -2.72578,0c-2.72578,0 -6.58791,-0.32083 -10.35798,0.67586c-3.88153,1.02615 -6.82465,3.06921 -8.72251,6.08267c-1.95626,3.10622 -1.87988,7.44194 -1.63547,13.51707c0.27291,6.7838 8.29558,18.32263 15.80955,24.3307c7.78828,6.22743 16.32925,9.12338 20.71596,9.46194c3.80872,0.29398 7.08423,-0.03343 17.44501,-1.3517c16.35038,-2.08035 52.95393,-12.30626 107.94105,-2.02756c26.43608,4.94168 42.60152,18.69945 53.9705,25.00658c8.23688,4.56952 11.34085,4.73755 11.4483,6.08267c0.2739,3.42941 3.76419,10.32074 -1.0903,24.33072c-6.98236,20.15082 -22.6875,38.18958 -41.97708,52.71655c-20.63271,15.53845 -50.16727,21.53076 -78.50258,20.27557c-18.05284,-0.79968 -33.26192,-5.66287 -44.70286,-12.16534c-7.56442,-4.29926 -13.81977,-14.04031 -9.26766,-25.00656c8.11395,-19.54694 33.61118,-35.59686 66.50912,-43.25461c35.50824,-8.26535 56.33363,-5.35828 68.68976,-2.02756c7.24562,1.95313 14.23582,5.97119 17.44502,8.78607c2.22516,1.95178 4.09753,4.99374 -2.18063,11.4895c-11.23076,11.62 -34.80159,20.77997 -53.97052,25.68243c-20.63011,5.27615 -33.79973,5.40683 -46.33833,5.40683c-9.26767,0 -16.9407,-0.52594 -22.35143,-1.35172c-4.46181,-0.68094 -6.54189,-1.35172 -7.08704,-1.35172c-0.54517,0 -0.54517,1.35172 -0.54517,3.37927c0,2.70343 -0.22319,5.58911 1.63548,8.7861c2.93881,5.0549 7.86472,10.79901 17.44501,13.51706c14.43661,4.09586 30.70883,4.85815 42.52223,-1.35172c5.42891,-2.85376 9.02074,-8.86203 9.81282,-12.16534c0.83653,-3.48871 2.45815,-7.75156 -0.54515,-12.16537c-4.88335,-7.17676 -14.07043,-10.5592 -20.71596,-12.84119c-4.84373,-1.66327 -10.35799,-4.05511 -14.17409,-4.05511c-2.18062,0 -2.72578,0 -2.72578,-0.67587l0.54517,0l2.18062,-0.67584" id="svg_1" stroke-width="5" stroke="#000000" fill="none"/>
  <ellipse ry="36" rx="90" id="svg_2" cy="138" cx="43" stroke-linecap="null" stroke-linejoin="null" stroke-width="5" stroke="#000000" fill="none"/>
  <ellipse ry="37" rx="125" id="svg_3" cy="124" cx="61" stroke-linecap="null" stroke-linejoin="null" stroke-width="5" stroke="#000000" fill="#ff0000"/>
  <ellipse ry="72" rx="83" id="svg_4" cy="83" cx="259" stroke-linecap="null" stroke-linejoin="null" stroke-width="5" stroke="#000000" fill="#ff0000"/>
  <path id="svg_5" d="m331.76071,354.11865q48.77646,33.50119 97.44589,0m-86.87704,-66.16516c0,-5.17871 4.1994,-9.37411 9.37683,-9.37411c5.17456,0 9.37396,4.1954 9.37396,9.37411c0,5.17737 -4.1994,9.3754 -9.37396,9.3754c-5.17743,0 -9.37683,-4.19803 -9.37683,-9.3754m57.66724,0c0,-5.17871 4.19678,-9.37411 9.37683,-9.37411c5.17456,0 9.37134,4.1954 9.37134,9.37411c0,5.17737 -4.19678,9.3754 -9.37134,9.3754c-5.18005,0 -9.37683,-4.19803 -9.37683,-9.3754m-109.45679,26.9165l0,0c0,-49.7063 40.29498,-90 89.99716,-90c49.70764,0 90.00284,40.2937 90.00284,90c0,49.70624 -40.2952,90 -90.00284,90c-49.70218,0 -89.99716,-40.29376 -89.99716,-90zm0,0l0,0c0,-49.7063 40.29498,-90 89.99716,-90c49.70764,0 90.00284,40.2937 90.00284,90c0,49.70624 -40.2952,90 -90.00284,90c-49.70218,0 -89.99716,-40.29376 -89.99716,-90z" stroke-linecap="null" stroke-linejoin="null" stroke-width="5" stroke="#000000" fill="#ff00ff"/>
  <path id="svg_6" d="m458.69998,147.69873l0,0c0,-9.30981 7.36963,-16.85522 16.46191,-16.85522l7.48389,0l0,0l35.91647,0l67.33722,0c4.36816,0 8.55634,1.77539 11.6413,4.93726c3.08929,3.15967 4.8252,7.44653 4.8252,11.91797l0,42.14136l0,0l0,25.28613l0,0c0,9.30981 -7.37402,16.85522 -16.46649,16.85522l-67.33722,0l-46.92038,42.86206l11.00391,-42.86206l-7.48389,0c-9.09229,0 -16.46191,-7.54541 -16.46191,-16.85522l0,0l0,-25.28613l0,0l0,-42.14136z" stroke-linecap="null" stroke-linejoin="null" stroke-width="5" stroke="#000000" fill="#ff00ff"/>
  <path id="svg_7" d="m472.07651,170.89951l0,0c0,-1.29272 1.02356,-2.341 2.28674,-2.341l1.03943,0l0,0l4.98792,0l9.35303,0c0.6062,0 1.18774,0.24658 1.61633,0.68573c0.42896,0.43915 0.67004,1.03455 0.67004,1.65527l0,5.85321l0,0l0,3.51166l0,0c0,1.29285 -1.02368,2.34106 -2.28638,2.34106l-9.35303,0l-6.51672,5.95306l1.52881,-5.95306l-1.03943,0c-1.26318,0 -2.28674,-1.04822 -2.28674,-2.34106l0,0l0,-3.51166l0,0z" stroke-linecap="null" stroke-linejoin="null" stroke-width="5" stroke="#000000" fill="#ff00ff"/>
  <path id="svg_8" d="m314.42499,156.83057l0,0c0,-0.06465 0.05118,-0.11707 0.11432,-0.11707l0.05194,0l0,0l0.24945,0l0.46762,0c0.03033,0 0.05942,0.01233 0.08084,0.03429c0.02145,0.02196 0.03348,0.05173 0.03348,0.08278l0,0.29263l0,0l0,0.1756l0,0c0,0.06465 -0.05118,0.11705 -0.11432,0.11705l-0.46762,0l-0.32584,0.29765l0.07639,-0.29765l-0.05194,0c-0.06314,0 -0.11432,-0.0524 -0.11432,-0.11705l0,0l0,-0.1756l0,0z" stroke-linecap="null" stroke-linejoin="null" stroke-width="5" stroke="#000000" fill="#ff00ff"/>
 </g>
</svg>